<svg xmlns="http://www.w3.org/2000/svg" viewBox="0 0 100 125" style="background:black">
  <path fill="white" d="M55.5,69.3c-1.9,0.3-2.8,1.4-3.7,2.7c-0.8,1.4-2,2.5-2.9,3.8c-0.5,0.6-1.1,1.3-1.1,2C47.4,81.1,45,83,43,85.1
  c-1,1.1-1.6,2.9-2.7,3.3c-1.6,0.6-2.3,1.9-3.4,2.8c-3.1,2.9-3.7,3-7.6,0.4c0-1.7,0-3.4,0-5.4c0.7-0.7,1.7-1.5,2.5-2.5
  c0.6-0.8,1.3-1.7,1.5-2.7c0.4-2.5,0.4-5.1,0.9-7.6c0.6-3.2,0.3-6.4,1.4-9.6c0.6-1.7,0.1-3.8,0.1-5.8c-2.2-1.7-4.8-2.7-7.4-3.9
  c-1.1-0.5-2.6-0.3-3.4-0.9c-1.5-1.1-3.4-0.1-4.8-1.6c-1.1-1.2-3.2-1-4.7-1.7c-1.8-0.8-2.9-2.7-3.1-4.9c-0.2-2.4,1-4.1,2.6-5.6
  c0.1-0.1,0.2-0.3,0.3-0.3c2.9,0.9,5-1.7,7.7-1.7c1.6,0,3.2-1,4.6-0.7c1.6,0.3,2.9-1.4,4.4-0.2c0.2,0.2,1.2-0.3,1.6-0.8
  c1.7-1.7,3.8-1.7,6.3-1.6c-0.2-2.7,0.5-5,1.5-7.3c0.4-1,0.5-2,1.4-2.8c1.1-1,1.9-2,0.7-3.5c-0.2-0.3,0.4-1,0.5-1.6
  c0.3-2.6,1-5.1,2.1-7.5c0.8-1.7,0.7-3.8,2-5.4c1.2-1.4,2.5-2.2,3.8-1.2c1.8,1.5,3.4,3.3,2.9,5.8c-0.4,1.9,1.7,3.7,0.2,5.5
  c1.5,1.8,0.3,4,0.7,6c0.5,2.3,1.2,4.5,1.7,6.7c2,0.5,3.7,0.2,5.2-0.7c0.7-0.4,1-0.8,1.9-0.1c1.1,0.9,2.8-0.3,3.2-0.9
  c1.1-1.6,2.9-1.6,4.2-2.1c1.3-0.5,2.4-1.6,3.4-1.7c1.6-0.2,2.4-1.1,3.4-1.9c0.5-0.4,1.2-0.7,1.8-0.7c1.6-0.1,3.3,0,4.7,0
  c2.7,2.2,2.5,5.1,2,7.7c-0.3,1.8-1.9,3.3-3,5c-0.4,0.7-0.7,1.5-1.2,2c-0.8,0.8-0.7,2.2-2.3,2.4c-0.5,0.1-0.8,1.3-1.2,1.9
  c-0.9,1.4-1.5,3.4-2.7,4.2c-1.4,0.9-1.7,2.8-3.6,3.2c-0.9,0.2-1.7,1.5-1.8,2.9c-0.1,1.2-1.2,2.3-2,3.3c-1.4,1.7-1.9,3.3-0.3,4.5
  c3,2.2,2.2,6.3,4.9,8.5c-0.7,2.8,2.4,4.8,1.7,7.7c-0.1,0.2,0,0.7,0.1,0.8c2.2,1.4,1.3,3.7,1.5,5.6c0.2,1.4,0.1,3.2,0.9,4.2
  c2.2,2.8-0.7,5.1-0.2,7.7c-1.5,1-2.8,2.5-4.7,2.8c-1.1,0.2-2.2,0-3.4,0c-1.8-2.5-2.6-5.4-3.5-8.2c-1-3.1-5.2-11.4-7-13.4
  c-0.7-0.7-1.8-1.1-2.5-1.8C56.4,71.2,56,70.2,55.5,69.3z M52.1,55.9c0.9-0.9,1.8-1.9,2.7-2.7c1.1-1,1.1-1.8,0.5-3.2
  c-0.7-1.6-1.5-3.3-2-5c-0.3-1.2-0.6-1.3-1.7-1.6c-4-1-5.5-0.7-8.3,2c0,2.2,0,4.2,0,6C46.6,52.7,49.3,54.2,52.1,55.9z M40.8,59.9
  c0,1.5,0.1,2.5,0,3.6c-0.1,0.6-0.2,1.3-0.5,1.8c-1.6,2.3-1,4.8-0.8,7.4c1.2-1.3,2.8-2.6,2.9-4.1c0.1-1.9,1.7-2.6,2.3-4.1
  c0.6-1.6,1.1-1.9,0-2.6C43.4,61.2,42.3,60.7,40.8,59.9z M50.4,32.8c-1.1-2.2-1.8-3.6-2.6-5.4c-0.9,1.8-1.8,3.4-2.7,5
  C46.8,34.1,48.3,31.9,50.4,32.8z M63.7,44.2c0.9-1.5,1.8-3.1,2.8-4.7c-1.2,0-2.5,0-4,0C62.7,41.2,61.7,43.1,63.7,44.2z M31.5,46.4
  c1.9,1.4,4,1.9,5.8,1.7c0-0.7,0-1.3,0-2.3C35.4,46.6,33.5,44.8,31.5,46.4z"/>
</svg>
